<svg width="1728" height="1367" viewBox="0 0 1728 1367" fill="none" xmlns="http://www.w3.org/2000/svg">
<path d="M1644.43 199.88C1644.82 199.772 1645.21 199.663 1645.6 199.554C1649.72 199.908 1653.87 198.206 1657.77 198.594C1663.7 199.186 1669.73 200.391 1675.39 203.148C1687.27 208.935 1687.83 208.765 1697.41 198.873C1697.85 198.424 1698.26 197.933 1698.67 197.436C1705.76 188.811 1714.13 182.275 1723.35 177.081C1725.02 176.141 1727.24 175.849 1727.86 173.207C1730.48 170.661 1733.7 170.069 1736.83 169C1738.21 171.43 1737.71 173.738 1737.71 175.903C1737.74 245.5 1737.74 315.097 1737.74 384.693C1737.74 386.055 1737.68 387.416 1737.72 388.771C1737.82 391.426 1736.62 392.325 1734.48 392.318C1731.34 392.311 1728.21 392.502 1725.07 392.55C1670.73 393.305 1616.39 391.065 1562.05 391.474C1522.23 391.773 1482.43 393.156 1442.63 394.946C1419.31 395.994 1395.99 397.37 1372.63 396.947C1345.35 396.464 1318.08 397.022 1290.85 398.534C1270.06 399.691 1249.28 400.236 1228.49 399.562C1200.2 398.643 1172.19 394.823 1144.85 385.98C1127.86 380.493 1112.15 371.956 1098.49 358.851C1075.63 336.916 1069.23 301.631 1082.6 270.934C1092.54 248.107 1108.65 232.715 1128.07 221.516C1143.69 212.509 1160.48 208.118 1177.6 205.054C1210.82 199.118 1244.04 200.514 1277.31 204.653C1299.33 207.389 1321.4 209.588 1343.45 212.039C1359.85 213.857 1376.23 215.736 1392.62 217.513C1408.65 219.249 1424.72 219.616 1440.8 220.263C1467.48 221.339 1494.14 221.332 1520.81 220.004C1535.71 219.262 1550.52 217.281 1565.37 215.824C1587.67 213.639 1609.76 210.004 1631.52 203.87C1633.8 203.23 1636.1 202.733 1638.4 202.168C1639.79 202.358 1641.18 202.57 1642.07 200.881L1642.08 200.874C1643.01 201.051 1643.85 200.868 1644.43 199.88Z" fill="#756D61"/>
<path d="M1727.86 173.207C1727.23 175.849 1725.01 176.141 1723.34 177.081C1714.13 182.275 1705.75 188.811 1698.66 197.436C1698.25 197.927 1697.85 198.417 1697.41 198.873C1687.83 208.765 1687.27 208.935 1675.38 203.148C1669.72 200.391 1663.7 199.193 1657.77 198.594C1653.87 198.199 1649.71 199.908 1645.59 199.554C1647.79 197.518 1650.53 196.953 1653.09 195.986C1666.09 191.091 1678.92 185.672 1691.73 180.199C1701.64 175.964 1711.8 172.683 1722.6 173.636C1724.34 173.786 1726.11 173.364 1727.86 173.207Z" fill="#756D61"/>
<path d="M1642.05 200.895C1641.17 202.59 1639.77 202.372 1638.39 202.182C1639.4 200.977 1640.69 200.765 1642.05 200.895Z" fill="#756D61"/>
<path d="M1644.43 199.88C1643.85 200.868 1643.02 201.051 1642.07 200.895C1642.68 200.01 1643.46 199.656 1644.43 199.88Z" fill="#756D61"/>
<path d="M783.262 209.521C785.942 209.621 788.616 209.721 791.297 209.821C793.488 211.712 796.069 210.67 798.496 210.764C801.2 210.864 803.904 210.97 806.608 211.07C808.021 212.561 809.789 211.995 811.479 211.913C825.365 212.419 839.167 213.869 852.97 215.33C858.219 215.883 863.497 216.031 868.758 216.573C883.921 218.134 899.167 218.953 914.336 220.472C935.915 222.634 957.506 224.796 979.002 227.636C998.754 230.246 1018.38 233.698 1037.93 237.698C1060.56 242.322 1083.1 247.212 1105.06 254.475C1114.55 257.621 1123.74 261.586 1132.76 265.851C1144.62 271.465 1156.79 276.407 1168.53 282.316C1179.42 287.801 1189.96 294.016 1199.59 301.285C1228.2 322.87 1230.61 363.535 1203.18 386.899C1194.6 394.216 1184.23 397.615 1173.16 399.264C1157.12 401.656 1140.97 403.258 1124.85 404.855C1112.59 406.068 1100.36 407.482 1088.12 408.784C1076.27 410.045 1064.48 411.765 1052.65 413.108C1040.22 414.516 1027.77 415.771 1015.33 416.984C1006.58 417.839 997.806 418.504 989.046 419.258C986.336 419.506 983.508 418.498 980.928 420.065C972.333 420.607 963.721 420.984 955.143 421.744C945.806 422.575 936.492 423.747 927.173 424.802C919.597 425.662 912.045 426.793 904.451 427.4C893.912 428.242 883.479 429.862 873.029 431.305C854.236 433.903 835.609 437.509 817.099 441.685C794.396 446.811 771.627 451.706 749.035 457.291C728.899 462.269 708.911 467.883 689.053 473.915C647.032 486.675 605.789 501.685 565.124 518.18C530.632 532.165 495.716 545.102 461.642 560.106C443.528 568.083 425.542 576.354 407.545 584.607C375.257 599.411 344.5 617.119 313.56 634.468C296.123 644.247 278.591 653.885 261.755 664.666C235.198 681.673 207.941 697.685 183.304 717.52C173.543 725.378 164.206 733.761 154.81 742.067C142.609 752.854 130.992 764.265 119.629 775.923C106.35 789.543 94.203 804.159 82.1441 818.845C74.8216 827.764 67.452 836.642 60.1 845.537C54.5507 846.992 50.1383 850.727 45.0367 853.107C35.0809 857.749 24.8541 858.297 14.2562 856.376C9.50218 855.51 5.06626 852.889 0 853.749C0 569.597 0 285.444 0 1.28597C0.771721 1.27419 1.53755 1.26241 2.30927 1.25063C7.46979 1.22706 12.6362 1.2035 17.7967 1.17994C37.0132 0.838259 56.0882 2.47007 75.1751 4.59083C108.041 8.23735 140.577 13.8102 172.936 20.414C204.86 26.9295 235.728 36.9324 265.82 49.4213C294.621 61.3742 322.821 74.5877 350.491 88.9382C362.491 95.165 374.379 101.616 386.361 107.866C406.379 118.311 427.369 126.476 448.553 134.163C468.429 141.38 488.258 148.738 508.205 155.754C517.613 159.065 527.168 162.022 536.806 164.602C549.489 167.995 562.019 171.842 574.432 176.072C600.252 184.879 626.685 190.947 653.719 194.546C669.595 196.661 685.406 199.271 701.306 201.227C714.49 202.847 727.757 203.842 740.988 205.103C753.435 206.293 765.889 207.477 778.337 208.661C779.768 210.216 781.553 209.639 783.262 209.521Z" fill="#689689"/>
<path d="M0.0177176 853.761C5.08398 852.895 9.5199 855.522 14.2739 856.388C24.8719 858.315 35.1045 857.761 45.0544 853.119C50.156 850.739 54.5684 847.004 60.1177 845.549C59.9645 847.947 57.9498 849.189 56.7186 850.898C47.2459 864.029 37.8321 877.207 28.1296 890.167C22.4153 897.796 16.6421 905.407 10.1974 912.465C9.14288 913.619 8.01181 914.709 6.89252 915.799C6.03832 916.63 5.08398 917.496 3.81741 917.119C2.09135 916.6 2.3859 915.01 2.33877 913.678C2.26808 911.722 2.29164 909.767 2.22095 907.811C2.16793 906.432 1.37854 905.702 0.0177176 905.572C0.0177176 888.3 0.0177176 871.033 0.0177176 853.761Z" fill="#689689"/>
<path d="M17.8144 1.1976C12.6539 1.22116 7.48745 1.24473 2.32693 1.26829C7.48156 -0.493117 12.6421 -0.328171 17.8144 1.1976Z" fill="#689689"/>
<path d="M980.94 420.071C983.514 418.504 986.348 419.512 989.058 419.264C986.501 421.043 983.685 420.23 980.94 420.071Z" fill="#689689"/>
<path d="M798.496 210.77C796.069 210.676 793.488 211.718 791.297 209.827C793.73 209.875 796.287 209.026 798.496 210.77Z" fill="#689689"/>
<path d="M783.262 209.521C781.553 209.639 779.768 210.216 778.348 208.673C780.057 208.549 781.807 208.166 783.262 209.521Z" fill="#689689"/>
<path d="M811.479 211.919C809.795 211.995 808.021 212.561 806.608 211.076C808.31 210.917 810.048 210.534 811.479 211.919Z" fill="#689689"/>
<path d="M1728 759.31C1727.59 759.299 1727.19 759.293 1726.78 759.281C1726.79 756.736 1726.82 754.185 1726.82 751.64C1726.82 639.346 1726.82 527.052 1726.83 414.757C1726.83 375.759 1726.87 336.761 1726.9 297.762C1727.26 297.75 1727.63 297.768 1728 297.809C1728 451.647 1728 605.479 1728 759.31Z" fill="#689689"/>
<path d="M1726.9 297.768C1726.87 336.766 1726.83 375.765 1726.83 414.763C1726.82 527.058 1726.82 639.352 1726.82 751.646C1726.82 754.191 1726.8 756.742 1726.78 759.287C1711.3 771.611 1696.3 784.483 1681.65 797.79C1663.1 814.644 1644.47 831.41 1623.17 844.924C1594.05 863.398 1562.63 875.94 1528.93 883.086C1510.74 886.939 1492.35 889.484 1473.99 892.111C1462 893.825 1449.89 894.65 1437.85 896.017C1419.39 898.108 1400.91 899.934 1382.35 900.847C1378.27 901.048 1374.18 901.655 1370.07 901.837C1366.48 901.955 1362.78 900.953 1359.35 902.815C1342.52 903.333 1325.79 905.06 1309.01 906.179C1298.07 906.909 1287.21 908.311 1276.27 909.012C1266.14 909.66 1256.07 911.127 1245.95 912.111C1236.41 913.042 1226.87 913.849 1217.32 914.638C1205.24 915.64 1193.17 916.618 1181.13 918.02C1168.51 919.487 1155.83 920.47 1143.21 921.89C1131.75 923.174 1120.34 924.771 1108.9 926.202C1098.62 927.492 1088.32 928.594 1078.07 930.043C1063.95 932.04 1049.83 934.12 1035.77 936.476C1016.49 939.699 997.233 943.027 978.034 946.656C958.824 950.291 939.672 954.261 920.609 958.65C889.734 965.754 858.759 972.423 827.932 979.698C811.366 983.61 794.83 987.592 778.064 990.52C764.209 992.935 750.288 995.027 736.386 997.183C726.925 998.65 717.475 1000.23 707.967 1001.32C692.78 1003.08 677.576 1003.77 662.271 1002.21C651.355 1001.09 640.551 999.586 629.835 997.254C604.745 991.793 582.1 981.077 561.323 966.12C536.675 948.382 518.56 925.006 502.807 899.451C490.089 878.809 481.788 856.565 478.083 832.694C475.491 815.999 475.367 799.157 477.394 782.332C481.824 745.561 497.282 713.408 518.472 683.593C527.779 670.492 537.694 657.861 547.797 645.384C553.712 638.085 560.121 631.187 566.371 624.159C578.63 610.362 591.655 597.373 606.489 586.315C625.7 572 645.753 559.146 667.691 549.243C690.524 538.934 714.306 531.971 738.901 527.8C754.117 525.22 769.41 522.875 784.898 522.38C796.209 522.445 807.514 522.51 818.824 522.569C819.832 522.575 820.745 522.315 821.522 521.65C828.603 523.393 835.908 522.675 843.095 523.647C855.272 525.284 867.56 526.139 879.82 527.175C887.024 527.782 894.253 528.112 901.469 528.566C902.836 530.015 904.473 529.714 906.135 529.29C910.082 529.438 914.029 529.585 917.97 529.732C920.326 531.364 922.718 531.258 925.139 529.897C929.357 531.093 933.687 530.881 937.999 530.898C941.381 532.784 944.98 531.929 948.526 531.729C952.868 531.841 957.204 531.959 961.545 532.071C965.728 534.032 970.111 533.055 974.441 532.937C974.635 532.954 974.83 532.984 975.024 532.99C1003.24 534.227 1031.47 535.252 1059.7 534.274C1075.12 533.738 1090.52 532.106 1105.75 529.349C1118.45 527.046 1131.11 524.613 1143.48 520.795C1161.09 515.364 1177.08 506.851 1192.11 496.336C1208.84 484.631 1224.08 471.134 1239.3 457.573C1249.39 448.584 1260.54 440.872 1271.17 432.531C1287.22 419.936 1303.59 407.83 1321.4 397.815C1331.65 392.048 1342 386.457 1352.38 380.931C1378.17 367.199 1404.43 354.422 1431.62 343.694C1459.13 332.849 1486.55 321.703 1515.51 315.123C1534.58 310.787 1553.67 306.428 1573.08 304.048C1588.22 302.192 1603.27 299.553 1618.52 298.64C1620.91 298.805 1623.38 299.63 1625.52 297.786C1629.07 297.68 1632.63 297.574 1636.18 297.468C1641 297.526 1645.81 297.644 1650.63 297.621C1652.49 297.609 1654.53 298.204 1656.12 296.602C1669.49 296.578 1682.86 296.549 1696.23 296.525C1697 297.627 1697.77 297.633 1698.56 296.543C1699.76 296.56 1700.97 296.578 1702.17 296.596C1703.57 298.08 1705.41 297.603 1707.1 297.621C1713.68 297.691 1720.27 297.703 1726.85 297.739L1726.9 297.768Z" fill="#689689"/>
<path d="M821.516 521.644C820.739 522.309 819.82 522.569 818.818 522.563C807.508 522.504 796.197 522.439 784.892 522.374C785.829 521.485 787.001 521.461 788.179 521.467C799.29 521.52 810.406 521.585 821.516 521.644Z" fill="#689689"/>
<path d="M1726.85 297.733C1720.27 297.697 1713.68 297.691 1707.1 297.615C1705.41 297.597 1703.57 298.074 1702.17 296.59C1708.77 296.584 1715.37 296.555 1721.97 296.602C1723.64 296.613 1725.51 296.113 1726.85 297.733Z" fill="#689689"/>
<path d="M1656.12 296.596C1654.53 298.198 1652.49 297.603 1650.62 297.615C1645.81 297.644 1640.99 297.527 1636.18 297.462C1639.84 295.771 1643.71 296.831 1647.49 296.602C1650.35 296.431 1653.24 296.584 1656.12 296.596Z" fill="#689689"/>
<path d="M974.435 532.931C970.111 533.043 965.728 534.027 961.54 532.065C965.834 532.418 970.241 531.099 974.435 532.931Z" fill="#689689"/>
<path d="M948.526 531.717C944.98 531.918 941.381 532.772 937.999 530.887C941.504 531.134 945.121 530.091 948.526 531.717Z" fill="#689689"/>
<path d="M1359.34 902.809C1362.78 900.948 1366.48 901.949 1370.07 901.831C1366.65 903.84 1362.94 902.709 1359.34 902.809Z" fill="#689689"/>
<path d="M1625.51 297.78C1623.37 299.624 1620.9 298.799 1618.51 298.634C1620.69 297.067 1623.17 297.986 1625.51 297.78Z" fill="#689689"/>
<path d="M925.133 529.885C922.712 531.252 920.314 531.358 917.964 529.72C920.35 529.779 922.741 529.832 925.133 529.885Z" fill="#689689"/>
<path d="M1698.55 296.537C1697.77 297.627 1696.99 297.621 1696.22 296.519C1697.01 295.453 1697.79 295.471 1698.55 296.537Z" fill="#689689"/>
<path d="M906.123 529.284C904.468 529.709 902.824 530.009 901.457 528.56C903.048 528.589 904.715 528.118 906.123 529.284Z" fill="#689689"/>
<path d="M1501.51 730.144C1501.75 732.412 1501.98 734.686 1502.18 736.954C1504.02 757.985 1503.63 779.139 1502.92 800.235C1499.52 900.27 1488.39 1000.74 1460.76 1097.2C1454.99 1117.34 1433.24 1119.33 1425.94 1138.97C1422.11 1149.27 1418.16 1159.53 1414.18 1169.77C1412.48 1174.14 1408.84 1190.6 1404.15 1192.75C1399.46 1194.9 1350.79 1192.76 1349.85 1192.75C1240.98 1192.65 1218.99 1288.33 1110.12 1288.33C1000.52 1288.33 890.922 1366.33 781.326 1366.33C671.73 1366.33 694.422 1307.86 584.826 1307.86C540.985 1307.86 393.615 1306.25 307 1227.86C304.449 1227.86 290.028 1210.18 287.477 1210.14C287.036 1205.58 286.335 1203.2 286.299 1203.08C284.862 1198.27 284.756 1193.06 283.536 1188.15C281.981 1181.92 279.855 1175.85 277.804 1169.77C265.486 1133.18 256.75 1095.77 248.668 1058.1L247.819 1055.05C245.38 1045.85 242.942 1036.65 240.509 1027.45L239.584 1024.42C237.186 1014.8 234.912 1005.15 234.164 995.227C234.129 994.856 246.859 988.923 248.078 988.246C256.709 983.457 264.768 977.813 273.74 973.607C288.974 966.461 304.933 961.047 320.414 954.496C337.869 947.115 354.67 938.32 371.972 930.597C388.62 923.168 408.278 914.019 426.859 913.925C438.635 913.866 450.417 913.902 462.193 913.913C463.565 913.913 464.962 913.872 466.299 914.114C474.305 915.569 482.299 917.083 490.293 918.626C498.328 920.175 506.257 922.226 513.769 925.471C521.48 928.806 529.026 932.529 536.573 936.234C539.895 937.866 543.076 939.798 546.257 941.707C559.123 949.442 571.954 957.242 584.826 964.971C588.39 967.109 592.089 968.482 596.484 968.211C601.05 967.928 605.262 966.567 609.538 965.295C614.941 963.692 620.083 961.259 625.792 960.658C628.472 960.376 631.1 959.574 633.768 959.144C639.895 958.161 646.033 957.265 652.172 956.329C656.195 955.716 660.231 955.186 664.236 954.461C669.002 953.595 673.75 952.594 678.493 951.575C685.132 950.155 691.818 948.982 698.487 947.734C707.494 946.043 716.425 944.405 725.644 944.464C729.898 944.494 734.174 943.816 738.398 943.168C744.713 942.196 750.964 940.776 757.291 939.91C762.74 939.168 767.735 937.071 772.896 935.433C774.168 935.027 774.81 934.155 774.858 932.829C777.344 932.906 779.329 931.763 781.326 930.426C789.479 924.959 796.177 917.778 803.635 911.498C809.803 906.302 814.227 899.492 819.199 893.242C828.542 881.483 837.037 869.095 844.972 856.329C847.647 852.028 850.622 847.893 853.726 843.887C856.354 840.5 859.329 837.383 862.221 834.214C863.405 832.918 864.648 831.598 866.092 830.626C877.514 822.915 890.003 818.456 903.929 818.509C907.853 818.526 911.776 818.456 915.7 818.52C919.588 818.585 923.429 818.715 927.34 819.357C932.112 820.135 937.166 819.964 942.003 819.404C949.926 818.479 957.826 817.054 965.814 817.389C973.29 817.702 980.66 816.747 987.994 815.864C996.454 814.844 1004.8 812.895 1013.21 811.451C1020.86 810.138 1028.64 809.378 1036.18 807.634C1045.3 805.531 1054.42 803.911 1063.73 802.927C1067.39 802.538 1071.15 802.515 1074.74 801.808C1082.04 800.376 1089.46 800.411 1096.81 799.775C1102.44 799.286 1108.01 798.591 1113.57 797.637C1119.12 796.682 1124.68 795.828 1130.24 794.939C1136.76 793.902 1143.28 792.889 1149.79 791.846C1155.54 790.921 1161.28 789.967 1167.03 789.03C1172.01 788.217 1177.07 787.699 1181.95 786.485C1184.85 785.766 1187.69 785.46 1190.62 785.395C1196.44 785.001 1202.27 784.612 1208.09 784.217C1208.28 784.205 1208.47 784.141 1208.66 784.093C1215.81 782.32 1222.94 780.465 1230.12 778.792C1243.34 775.711 1256.44 772.105 1269.9 770.096C1276.22 769.154 1282.45 767.622 1288.74 766.468C1295.22 765.278 1301.68 763.811 1308.21 763.222C1314.82 762.627 1321.32 761.613 1327.69 759.946C1340.09 756.706 1352.49 753.401 1364.74 749.631C1381.29 744.535 1397.73 739.039 1414.18 733.578C1420.89 731.351 1427.06 728.211 1432.03 722.839C1434.91 719.728 1438.48 717.207 1441.97 714.727C1444.28 713.077 1445.54 711.234 1445.21 708.365C1444.74 704.123 1446.05 700.27 1447.81 696.506C1448.3 695.457 1448.58 694.309 1448.95 693.195C1453.94 678.032 1458.96 662.88 1463.88 647.693C1464.62 645.413 1465.56 643.399 1467.13 641.555C1469.64 638.592 1470.9 634.704 1474.03 632.159C1474.42 631.841 1474.52 631.116 1474.66 630.556C1476.53 622.768 1481.69 616.695 1485.45 609.891C1485.82 609.219 1487.06 609.036 1487.9 608.624C1492.81 614.003 1495.22 620.618 1496.92 627.487C1501.15 644.53 1496.15 661.602 1496.51 678.821C1496.87 696.035 1499.69 713.048 1501.51 730.144Z" fill="#9B9A99"/>
<path d="M1195.64 791.905C1126.01 805.23 1055.88 815.899 985.443 823.875C964.789 826.214 944.018 828.341 923.205 827.805C903.546 827.298 887.164 827.81 870.174 839.233C859.352 846.491 851.558 861.142 844.401 871.698C835.865 884.299 827.617 897.142 817.803 908.812C810.427 917.583 802.209 925.642 793.302 932.853C789.273 936.116 785.025 939.239 780.159 941.041C775.965 942.591 771.47 943.097 767.028 943.61C719.482 949.094 671.035 955.38 624.348 965.754C618.322 967.421 612.39 969.418 606.357 971.097C603.588 971.869 600.661 972.741 597.862 972.576C594.387 972.37 590.97 971.05 588.066 968.941C561.438 949.572 530.14 933.536 498.263 924.983C468.308 916.941 436.213 915.586 406.322 923.846C392.025 927.798 378.411 933.86 364.868 939.904C327.277 956.67 289.687 973.436 252.096 990.202C249.345 991.427 246.564 992.676 244.155 994.49C237.369 999.61 235.071 1000.11 234.429 991.521C233.816 983.262 233.84 974.62 234.629 966.379C236.008 952.046 240.98 938.585 248.131 926.008C258.83 907.186 273.245 891.38 289.239 877.03C305.009 862.874 321.439 849.478 338.429 836.747C355.265 824.134 372.756 812.517 390.482 801.224C415.006 785.613 439.554 770.037 464.19 754.609C471.836 749.82 479.689 745.295 487.683 741.107C499.553 734.886 512.313 730.792 525.138 727.057C536.425 723.77 547.877 721.024 559.318 718.303C580.29 713.313 601.262 708.341 622.316 703.705C633.409 701.26 644.655 699.54 655.842 697.513C670.681 694.827 685.526 692.111 700.384 689.519C710.616 687.734 720.896 686.208 731.129 684.441C741.361 682.674 751.559 680.712 761.785 678.927C769.503 677.578 777.273 676.482 784.984 675.086C796.937 672.93 808.855 670.562 820.801 668.382C834.881 665.814 848.996 663.457 863.052 660.806C878.074 657.973 893.049 654.939 908.035 651.917C922.239 649.054 936.454 646.179 950.627 643.139C959.44 641.248 968.165 638.939 976.972 637.001C1026.36 626.15 1075.86 614.326 1126.21 607.67C1177.85 600.842 1229.93 597.926 1281.96 596.276C1327.89 594.821 1373.85 594.38 1419.79 593.184C1434.19 592.813 1448.97 592.671 1463.05 596.147C1469.95 597.849 1476.69 600.406 1482.62 604.371C1484.44 605.59 1490.27 608.948 1490.81 611.128C1491.77 614.921 1489.01 614.78 1486.38 617.649C1484.13 620.088 1482.07 622.692 1479.92 625.237C1479.67 625.537 1479.32 625.843 1479.26 626.185C1478.4 631.075 1474.3 634.344 1473.01 639.175C1471.76 643.829 1468.99 648.058 1467.13 652.577C1464.24 659.605 1461.48 666.662 1459.69 674.108C1458.18 680.341 1455.98 686.415 1453.94 692.506C1452.33 697.313 1450.48 702.038 1448.75 706.803C1447.68 709.743 1446.53 712.671 1446.91 715.911C1447.14 717.926 1445.93 719.204 1444.53 720.37C1442.28 722.25 1439.99 724.088 1437.8 726.02C1431.7 731.357 1425.06 735.722 1417.25 738.208C1385.3 748.376 1354.06 757.448 1321.28 765.077C1286.59 773.148 1251.8 780.783 1216.87 787.746C1209.81 789.166 1202.73 790.55 1195.64 791.905Z" fill="#B4AD9F"/>
<path d="M754.339 550.401C750.651 554.848 749.372 559.738 747.947 564.627C745.313 573.641 742.315 582.542 739.464 591.484C733.396 610.501 727.234 629.452 719.835 648.05C711.747 668.386 704.565 689.098 699.57 710.548C696.206 725.004 691.57 739.184 687.894 753.593C686.781 757.946 685.814 762.341 684.748 766.706C684.106 769.34 683.01 771.885 686.504 773.687C687.729 774.318 688.041 776.214 687.582 777.946C686.633 781.528 686.044 785.216 685.019 788.774C683.429 794.317 680.86 799.566 682.168 805.717C682.769 808.556 681.384 811.519 680.041 814.147C677.349 819.396 672.477 821.216 667.358 818.376C664.595 816.845 662.315 817.021 659.605 817.929C649.591 821.286 639.882 825.581 629.461 827.696C621.602 829.292 613.756 830.659 605.685 829.534C596.065 828.191 592.036 820.02 597.385 811.879C602.245 804.491 608.377 798.029 614.875 792.12C620.389 787.107 625.638 781.829 631.111 776.792C634.557 773.622 637.868 770.565 642.769 769.346C645.685 768.615 647.482 765.569 648.418 762.382C650.25 756.15 650.139 749.593 651.747 743.349C655.853 727.402 656.377 710.866 659.988 694.83C665.178 671.749 669.049 648.344 676.766 625.888C680.772 614.218 684.954 602.607 689.237 591.043C691.511 584.904 692.224 578.513 693.025 572.115C694.604 559.514 695.599 546.801 698.922 534.495C702.751 520.315 707.028 506.248 712.66 492.657C715.988 484.628 720.524 477.388 727.428 471.773C730.138 469.57 732.571 466.966 734.645 464.056C736.471 461.494 738.845 459.438 741.531 457.723C751.434 451.402 761.19 444.946 772.023 440.121C779.676 436.71 786.397 431.391 793.143 426.336C796.353 423.927 797.62 420.475 797.655 416.557C797.702 410.678 798.044 404.822 798.845 398.99C799.057 397.435 799.004 395.85 799.941 394.484C800.565 393.57 801.667 392.881 802.115 394.16C803.128 397.046 805.402 396.445 807.446 396.528C816.329 396.869 824.96 394.972 833.667 393.635C839.469 392.746 845.054 390.949 850.874 390.107C854.008 389.653 855.134 390.407 855.74 393.294C857.331 400.911 860.895 407.591 865.749 413.641C866.609 414.719 867.263 415.974 868.6 416.498C875.899 419.367 883.169 422.36 891.31 421.14C892.477 420.964 893.731 421.052 894.574 420.086C898.35 415.762 902.444 417.953 906.391 419.585C917.036 423.986 925.831 431.043 934.12 438.884C945.555 449.706 955.958 461.317 964.247 474.807C968.594 481.877 971.233 489.7 975.033 496.993C976.476 499.767 977.525 502.748 978.992 505.517C984.971 516.798 989.666 528.645 994.267 540.516C997.018 547.614 998.85 555.049 1000.39 562.542C1002.12 570.972 1005.63 579.037 1006.44 587.62C1007.67 600.674 1010.98 613.364 1012.41 626.412C1013.6 637.163 1014.46 647.814 1014.17 658.595C1014.02 664.067 1012.38 669.481 1013.21 674.984C1014.42 682.978 1014.36 691.025 1014.2 699.042C1014 708.433 1013.3 717.805 1013.11 727.207C1013.02 731.496 1011.69 735.726 1009.8 739.62C1005.71 748.002 1007.34 756.002 1011.49 763.667C1013.99 768.291 1015.28 773.169 1015.38 778.253C1015.68 793.634 1009.71 806.859 1000.56 818.83C998.297 821.787 996.252 822.223 992.871 820.238C990.968 819.119 989.861 819.019 988.359 820.574C984.989 824.079 980.382 825.363 976.017 826.936C970.88 828.786 970.797 828.621 970.803 834.194C970.821 845.575 971.045 856.957 970.845 868.332C970.621 881.257 971.033 894.17 969.908 907.107C968.871 919.001 970.898 930.924 971.51 942.836C972.329 958.7 975.398 974.264 976.936 990.028C978.22 1003.17 977.478 1016.27 977.831 1029.39C977.943 1033.44 976.688 1036.99 974.079 1040.23C970.267 1044.94 966.409 1049.68 963.175 1054.79C957.773 1063.32 939.728 1064.07 932.082 1056C930.161 1053.98 929.048 1051.44 928.524 1048.68C924.83 1029.3 922.214 1009.72 918.091 990.399C917.926 989.64 917.879 988.838 917.908 988.055C918.279 978.441 916.801 968.897 916.836 959.295C916.877 947.519 914.462 935.955 913.708 924.255C913.278 917.61 913.201 910.936 913.183 904.273C913.16 890.93 911.711 877.728 909.684 864.568C909.119 860.88 907.923 857.381 906.692 853.852C904.117 846.459 900.695 839.378 898.786 831.743C898.22 829.487 897.449 827.095 896.1 825.263C891.275 818.742 888.088 811.378 884.512 804.185C881.796 798.718 878.079 793.858 873.808 789.516C867.481 783.083 860.665 777.104 854.603 770.441C848.789 764.05 836.536 765.964 832.377 773.116C823.028 789.192 814.268 805.569 805.414 821.911C796.866 837.693 792.659 854.524 789.372 871.931C786.763 885.74 785.036 899.696 781.667 913.416C778.421 926.653 773.249 939.059 768.4 951.649C763.959 963.183 760.512 975.006 758.015 987.112C757.779 988.255 757.732 989.451 757.702 990.623C757.52 996.88 757.308 1003.12 756.718 1009.38C756.118 1015.75 757.243 1022.28 757.973 1028.65C760.047 1046.71 763.216 1064.63 767.322 1082.33C770.056 1094.14 774.604 1105.58 776.695 1117.47C781.932 1147.26 792.754 1175.52 799.499 1204.88C801.737 1214.63 801.596 1223.78 797.679 1232.98C794.645 1240.12 788.4 1242.98 780.718 1242.54C771.852 1242.03 767.852 1237.37 765.755 1229.63C765.095 1227.19 764.082 1224.78 762.857 1222.58C757.926 1213.67 756.253 1203.87 754.168 1194.07C749.714 1173.17 743.882 1152.64 734.197 1133.43C731.552 1128.19 728.506 1123.15 725.626 1118.02C723.322 1113.92 721.249 1109.72 719.582 1105.29C716.347 1096.68 712.624 1088.24 709.543 1079.57C702.009 1058.33 696.424 1036.56 692.118 1014.44C689.938 1003.23 689.278 991.931 689.49 980.544C689.543 977.863 689.979 975.112 687.323 973.027C685.903 971.913 685.962 969.875 685.938 968.078C685.779 957.31 685.614 946.547 687.116 935.831C687.458 933.41 689.037 931.637 689.608 929.31C691.063 923.401 692.094 917.416 692.742 911.413C694.303 896.833 696.507 882.264 695.334 867.513C694.792 860.686 693.697 853.87 694.209 847.007C695.14 834.518 695.158 821.988 696.306 809.505C696.966 802.306 697.255 795.036 697.484 787.814C697.92 773.994 700.383 760.621 704.147 747.402C705.914 741.192 707.517 734.936 709.261 728.721C714.704 709.293 721.502 690.312 728.288 671.325C729.802 667.095 730.81 662.689 732.177 658.4C737.107 642.925 741.979 627.437 747.876 612.28C752.088 601.452 754.327 590.124 754.344 578.442C754.344 569.099 754.339 559.75 754.339 550.401ZM968.4 758.818C969.696 750.919 972.017 743.519 975.44 736.374C977.213 732.674 978.744 728.839 979.004 724.639C979.487 716.768 978.621 708.969 977.124 701.293C972.712 678.595 965.23 656.698 959.145 634.442C954.497 617.458 949.177 600.657 945.077 583.526C943.298 576.091 942.992 568.433 942.191 560.863C940.577 545.605 934.108 531.915 928.559 517.924C927.829 516.08 927.198 513.918 925.001 513.334C923.988 514.224 923.935 515.031 924.017 515.785C924.924 524.127 925.178 532.545 927.016 540.787C928.117 545.741 929.231 550.683 929.849 555.756C930.745 563.125 931.446 570.536 932.553 577.859C934.597 591.331 934.627 604.716 933.519 618.23C932.942 625.228 933.007 632.274 933.896 639.337C934.992 648.05 937.348 656.627 936.818 665.54C936.63 668.698 937.714 671.732 938.874 674.636C946.792 694.477 953.289 714.818 960.37 734.954C963.151 742.883 965.731 750.865 968.4 758.818Z" fill="#CFB2A9"/>
<path d="M930.24 1039.17C934.081 1043.21 939.112 1043.79 944.06 1043.53C949.074 1043.26 954.222 1044.14 959.129 1041.99C960.967 1041.19 962.929 1042.46 962.705 1044.62C962.146 1050.14 966.305 1052.39 969.869 1054.12C975.719 1056.96 981.121 1060.44 986.64 1063.77C989.492 1065.5 992.396 1067.18 995.618 1068.07C1004.67 1070.57 1013.43 1074.01 1022.56 1076.29C1031.17 1078.44 1037.88 1084.01 1044.24 1089.83C1048.37 1093.61 1046.91 1098.64 1045.36 1103.04C1044.08 1106.68 1041.95 1110.08 1039.84 1113.36C1037.9 1116.38 1035.14 1118.81 1031.52 1119.51C1019.66 1121.81 1008.07 1125.65 995.63 1124.47C983.347 1123.31 971.159 1121.79 959.071 1119.28C952.19 1117.86 945.274 1116.43 938.157 1116.5C930.252 1116.59 922.546 1115.7 915.495 1111.59C910.334 1108.58 907.465 1104.34 907.3 1098.3C906.965 1086.39 911.666 1076.17 918.016 1066.56C920.208 1063.24 922.317 1060.03 922.582 1055.94C922.617 1055.36 922.623 1054.45 922.953 1054.27C928.402 1051.26 926.829 1045 929.303 1040.64C929.592 1040.14 929.922 1039.67 930.24 1039.17Z" fill="#3F4651"/>
<path d="M756.697 1232.82C759.984 1236.32 759.925 1236.19 764.243 1234.3C772.891 1230.53 781.062 1225.92 788.868 1220.66C790.311 1219.68 792.391 1219.12 792.927 1217.43C793.852 1214.52 796.355 1215.46 798.17 1214.69C800.785 1213.57 801.41 1215.8 802.824 1216.99C807.477 1220.9 812.102 1224.43 819.03 1223.54C823.866 1222.92 828.697 1224.86 833.15 1226.97C839.047 1229.76 841.669 1235.98 840.273 1243.98C839.289 1249.6 837.645 1255.12 834.435 1259.87C826.659 1271.4 819.778 1283.5 811.071 1294.42C801.91 1305.92 790.665 1315.04 778.924 1323.52C773.934 1327.12 767.925 1329.62 762.034 1331.6C754.288 1334.21 746.871 1332.31 740.573 1327.1C735.501 1322.91 733.481 1315.47 736.903 1310.05C743.495 1299.63 745.392 1287.81 748.355 1276.29C750.211 1269.09 751.902 1261.85 754.17 1254.75C755.843 1249.51 756.774 1244.11 756.078 1238.54C755.855 1236.64 755.584 1234.66 756.697 1232.82Z" fill="#3F4651"/>
<path d="M676.617 928.218C676.34 899.57 675.928 870.916 676.947 842.274C678.314 803.305 680.611 763.194 697.206 727.912C703.174 715.229 710.897 703.465 716.818 690.752C718.756 686.587 719.038 678.994 722.803 675.977C727.492 672.219 735.186 672.537 740.788 671.96C749.212 671.088 757.595 669.833 765.949 668.443C783.203 665.574 800.352 662.039 817.707 659.748C846.62 655.936 877.023 655.795 903.757 667.447C910.602 670.434 917.153 674.169 924.269 676.443C927.415 677.444 930.714 678.175 934.019 678.34C937.235 678.499 942.95 676.054 945.671 676.861C951.185 678.499 954.843 688.343 957 693.167C962.991 706.599 966.013 721.173 969.324 735.435C974.125 756.124 976.805 777.238 979.114 798.328C983.969 842.64 987.262 887.217 986.59 931.824C986.254 954.038 984.941 976.248 982.325 998.315C981.017 1009.35 979.344 1020.33 977.406 1031.27C976.216 1038 978.119 1050.83 970.19 1053.87C955.969 1059.33 941.659 1062.96 927.303 1054.12C926.154 1053.41 924.846 1052.75 923.545 1052.56C918.944 1051.86 917.1 1048.67 915.745 1044.74C913.93 1039.5 913.318 1034.04 912.44 1028.62C909.801 1012.37 907.226 996.094 904.534 979.841C903.827 975.564 903.415 971.276 903.409 966.957C903.374 950.469 903.462 934.009 904.811 917.532C905.836 905.019 904.705 892.483 902.873 879.995C900.764 865.626 898.054 851.382 895.45 837.114C892.452 820.672 883.132 805.915 873.359 792.672C868.475 786.063 863.256 779.712 857.995 773.403C853.872 768.46 851.168 761.432 844.546 765.556C840.134 768.301 836.505 771.789 833.53 776.024C825.353 787.659 818.396 799.859 815.409 813.986C814.225 819.576 811.775 824.755 809.642 830.015C800.77 851.894 794.756 874.592 789.566 897.579C787.068 908.66 783.345 919.417 779.474 930.127C775.48 941.178 772.305 952.513 769.672 963.994C767.085 975.258 764.918 986.628 761.625 997.726C761.189 999.205 761.077 1000.81 761.059 1002.37C760.929 1012.39 761.236 1022.34 763.433 1032.22C766.626 1046.57 769.141 1061.01 769.884 1075.8C770.697 1091.9 774.985 1107.51 778.202 1123.26C780.205 1133.06 782.184 1142.86 783.857 1152.71C785.813 1164.2 790.267 1174.92 793.695 1185.94C797.412 1197.9 801.619 1209.68 806.632 1221.17C807.274 1222.63 807.209 1223.69 806.349 1224.95C802.732 1230.25 798.496 1234.72 792.063 1236.6C785.86 1238.42 779.716 1240.43 773.518 1242.28C769.46 1243.49 765.312 1242.5 761.236 1242.36C759.209 1242.29 758.225 1240.02 757.377 1238.25C753.907 1231.02 749.289 1224.32 747.262 1216.43C747.215 1216.24 747.168 1216.04 747.068 1215.88C732.865 1192.71 726.879 1166.23 717.059 1141.3C708.941 1120.68 701.112 1099.94 695.015 1078.62C688.358 1055.36 683.846 1031.71 682.114 1007.54C681.354 996.931 676.547 986.728 676.694 976.2C676.776 970.339 676.794 964.477 676.8 958.616C676.794 948.483 676.712 938.351 676.617 928.218Z" fill="#131D29"/>
<path d="M941.281 601.672C941.154 607.151 942.316 626.285 942.316 626.285C942.316 626.285 943.848 637.89 945.234 643.581C947.601 653.289 949.665 663.033 949.538 673.077C949.459 679.38 947.256 682.402 941.251 684.464C935.718 686.361 930.059 687.474 924.151 687.527C916.07 687.598 908.709 689.89 902.45 695.038C891.04 704.417 877.571 708.158 862.947 708.753C856.125 709.03 849.321 708.959 842.487 709.684C832.875 710.703 823.226 708.982 813.65 708.146C808.099 707.663 802.463 707.834 796.894 706.585C788.487 704.7 779.927 703.374 771.943 700.052C762.004 695.916 751.441 694.65 740.884 693.471C731.714 692.446 725.497 688.27 723.167 679.309C722.519 671.934 724.759 665.006 726.69 658.031C726.926 655.551 728.947 653.937 729.898 651.781C736.744 636.264 741.363 620.064 745.412 603.704C746.714 598.455 747.355 593.048 748.3 587.716C745.515 591.416 744.946 595.74 743.499 599.775C739.268 611.616 734.843 623.398 730.969 635.345C728.566 642.762 725.503 658.102 725.503 658.102C725.503 658.102 721.95 670.579 720.739 676.953C717.392 690.732 711.218 703.539 706.339 716.794C703.663 724.052 699.523 730.408 695.582 737.012C689.59 747.05 685.837 758.043 687.326 770.066C687.749 773.507 686.654 774.702 683.052 774.732C677.005 774.785 670.958 774.644 664.911 774.738C658.077 774.838 651.333 776.211 644.451 775.945C638.107 775.704 637.314 775.462 635.728 769.359C633.38 760.311 633.041 751.221 636.055 742.208C638.543 734.767 640.686 727.221 643.628 719.916C647.968 709.13 649.729 697.636 652.938 686.532C656.806 673.13 661.043 659.887 667.072 647.215C670.468 640.081 671.957 632.323 673.863 624.723C676.575 613.896 680.371 603.351 682.665 592.405C684.111 585.489 684.59 578.473 685.528 571.51C686.442 564.735 687.967 558.067 688.573 551.216C689.009 546.326 689.281 541.46 689.263 536.582C689.196 521.766 692.307 507.469 696.351 493.301C699.208 483.286 702.017 473.136 707.416 464.17C715.534 450.692 725.594 438.762 740.539 431.722C744.892 429.672 749.147 427.404 753.548 425.454C758.299 423.345 763.118 421.561 768.475 421.066C773.662 420.588 778.729 419.11 783.614 417.248C785.212 416.642 786.816 416.135 788.184 417.225C790.303 418.91 790.357 420.482 787.324 421.295C786.724 421.207 786.82 421.313 786.724 421.207C786.669 421.142 787.026 420.912 787.026 420.912C787.026 420.912 787.167 421.13 787.343 421.284C788.801 441.071 799.491 450.939 816.864 452.453C823.335 453.013 830.024 451.41 836.591 450.591C841.367 449.996 846.113 449.183 850.84 448.288C860.943 446.385 869.17 441.831 874.769 432.995C878.177 427.622 878.564 421.507 880.495 415.781C881.058 414.126 881.234 412.347 881.621 410.627C882.668 405.932 882.692 405.69 887.22 405.967C898.685 406.668 910.01 408.335 920.827 412.276C923.424 413.225 925.773 414.904 928.109 416.424C943.436 426.368 956.88 438.332 968.533 452.229C972.05 456.423 974.368 461.219 975.954 466.25C980.984 482.214 988.26 497.307 994.537 512.789C998.447 522.432 1001.71 532.323 1005.33 542.085C1006.22 544.476 1007.37 546.774 1008.42 549.107C1015.61 565.142 1019.55 582.19 1024.71 598.862C1026.47 604.517 1027.01 610.326 1027.16 616.246C1027.45 627.386 1028.57 638.508 1029.03 649.619C1029.54 661.907 1030.36 674.267 1028.36 686.608C1025 707.351 1024.43 728.275 1024.46 749.259C1024.47 758.426 1023.34 767.616 1023.5 776.829C1023.56 780.499 1022.65 780.888 1019.12 779.68C1011.93 777.212 1005.35 773.913 998.859 769.783C991.747 765.259 984.701 759.987 976.045 757.978C973.018 757.277 971.577 755.569 971.293 752.169C970.306 740.429 967.613 728.982 963.321 717.954C957.528 703.056 954.035 687.692 951.844 671.899C949.968 658.332 948.811 644.7 947.546 631.103C946.626 621.165 944.635 611.422 943.557 601.542C944.441 600.777 944.15 599.905 944.023 598.897C943.357 593.69 942.431 588.464 942.383 583.245C942.316 575.581 940.827 568.14 939.623 560.647C939.374 559.115 939.108 557.254 937.716 556.246C936.287 556.606 936.184 557.537 936.366 558.19C937.619 562.774 937.032 567.534 937.782 572.134C939.374 581.931 941.166 591.704 941.281 601.672Z" fill="#EEEDFB"/>
<path d="M872.878 341.251C872.84 342.286 872.803 343.297 872.784 344.279C872.628 351.779 872.06 359.273 871.074 366.721C870.212 373.228 869.519 379.347 865.986 385.172C862.441 390.926 857.354 395.676 851.754 399.673C847.135 402.97 842.298 406.009 837.56 409.154C835.2 410.723 832.972 411.111 830.045 409.853C825.744 408.002 821.1 406.844 816.612 405.421C805.426 401.883 798.073 394.371 792.461 385.313C786.706 376.031 781.962 366.203 780.089 355.435C777.549 340.881 778.516 326.568 785.195 313.078C787.811 307.8 792.105 303.444 797.604 300.252C808.041 294.192 819.439 291.259 831.518 289.989C839.845 289.114 846.748 292.1 852.66 296.873C861.143 303.732 866.867 311.814 871.005 321.519C873.502 327.379 873.121 334.733 872.878 341.251Z" fill="#F9D8CB"/>
<path d="M899.835 438.453C894.887 446.712 887.217 446.259 879.706 446.206C877.885 446.194 875.894 445.758 875.016 444.185C873.114 440.786 870.086 440.621 866.91 440.863C863.659 441.11 860.878 440.898 860.866 436.715C858.575 436.974 858.504 438.589 857.856 439.661C857.349 440.491 857.043 441.452 856.542 442.288C854.698 445.369 851.57 447.413 849.491 446.547C846.522 445.31 845.125 442.559 844.713 439.614C843.376 430.058 844.972 420.48 844.79 410.907C844.748 408.845 845.815 407.231 847.258 405.764C849.997 402.972 852.636 400.073 855.27 397.175C861.773 390.023 864.631 381.416 864.849 371.932C865.025 364.274 865.555 356.674 866.816 349.116C868.772 337.375 864.89 327.579 856.76 319.213C852.807 315.149 848.689 311.272 845.573 306.412C843.022 302.43 839.046 299.673 835.594 296.486C833.703 294.742 831.193 294.777 828.908 294.966C819.906 295.691 811.164 297.817 802.563 300.474C800.931 300.981 799.341 302.023 798.05 303.172C789.096 311.143 782.263 320.356 779.953 332.551C776.996 348.156 780.053 362.565 788.042 375.979C792.525 383.514 796.171 391.667 802.828 397.764C804.36 399.166 805.025 400.939 803.812 403.06C803.24 404.061 802.94 405.245 802.669 406.382C801.314 412.114 801.874 413.104 807.564 414.524C812.955 415.867 818.068 417.599 821.986 421.87C829.585 430.164 825.125 446.689 814.433 449.758C813.031 450.158 811.877 449.699 811.659 448.438C811.07 445.027 808.371 444.332 805.779 443.466C803.93 442.848 802.009 442.441 800.154 441.84C797.355 440.927 794.351 439.455 791.635 440.091C788.896 440.733 788.766 444.456 787.235 446.671C785.644 448.969 783.953 451.113 781.226 452.079C778.557 453.027 776.896 451.631 777.55 448.827C777.939 447.148 778.958 445.622 779.576 443.985C780.289 442.111 780.843 440.191 778.911 438.624C776.76 436.88 774.569 437.057 772.442 438.618C770.257 440.22 769.084 442.27 769.391 445.157C769.685 447.873 769.862 450.636 769.691 453.351C769.326 459.119 764.914 464.226 759.4 465.528C758.469 465.746 757.002 466.058 756.554 465.593C753.114 461.988 749.014 464.474 745.249 464.126C744.277 464.038 743.305 463.861 742.363 463.614C740.207 463.06 739.429 461.764 740.507 459.684C741.137 458.471 741.78 457.239 742.581 456.144C745.803 451.731 745.556 447.366 742.333 443.154C740.548 440.821 739.594 436.945 735.017 439.107C733.75 439.702 732.042 438.447 730.946 437.216C722.928 428.156 719.859 417.546 721.491 405.658C722.157 400.798 725.279 397.393 730.015 396.132C734.923 394.824 738.416 391.178 742.869 389.181C744.813 388.309 744.92 386.471 745.143 384.721C745.579 381.363 745.155 377.994 744.419 374.789C742.669 367.166 744.59 360.327 750.104 355.431C756.919 349.381 760.26 341.157 765.509 334.171C767.676 331.284 768.542 327.938 768.525 324.244C768.489 313.782 771.57 304.215 777.238 295.431C782.021 288.015 788.401 282.536 796.224 278.418C806.162 273.187 816.754 272.109 827.588 273.069C835.305 273.752 841.832 277.293 846.021 284.156C847.411 286.436 849.131 287.973 851.611 289.04C855.7 290.795 858.734 294.012 860.913 297.758C864.277 303.543 868.253 308.78 872.595 313.858C877.608 319.72 880.742 326.783 883.252 334.017C885.879 341.593 888.165 349.299 890.463 356.986C892.607 364.173 893.573 371.549 893.037 379.054C892.737 383.266 894.339 386.111 898.127 388.091C902.121 390.182 906.062 392.539 908.289 396.715C909.29 398.595 910.681 400.739 910.557 402.671C910.044 410.388 915.387 416.974 914.351 424.78C913.508 431.136 910.274 436.167 906.274 440.786C903.529 443.943 902.439 443.549 899.835 438.453Z" fill="#151F2B"/>
<path d="M807.277 286.817C807.184 286.854 807.096 286.891 807.002 286.928C804.961 287.802 803.125 289.113 801.319 290.435C795.39 294.761 789.514 299.259 784.506 304.723C779.498 310.187 775.352 316.697 773.458 324.007C771.142 322.912 769.969 326.032 768.596 327.121C767.852 325.952 767.336 324.413 767.019 323.035C762.632 303.997 772.877 286.011 788.752 276.96C795.261 273.25 802.428 270.961 809.67 269.361C816.402 267.872 823.809 266.678 830.694 267.078C837.391 267.466 843.572 271.25 848.808 275.379C854.89 280.172 860.519 285.845 864.46 292.724C866.325 295.98 867.17 298.865 867.914 302.471C868.554 305.597 870.5 309.707 868.471 312.698C867.041 314.802 851.494 305.455 849.612 304.176C846.199 301.862 843.079 299.105 839.678 296.779C837.473 295.272 835.162 293.943 832.858 292.62C828.858 290.325 824.818 288.011 820.431 286.694C816.138 285.402 811.435 285.138 807.277 286.817Z" fill="#C2C0D5"/>
<path d="M865.733 310.667C862.461 310.655 860.267 308.864 857.875 307.258C854.127 304.742 850.486 302.053 846.803 299.425C841.865 295.912 836.464 293.168 830.94 290.848C830.647 290.725 830.348 290.602 830.072 290.429C828.999 289.753 828.178 288.602 827.175 287.802C824.348 285.568 820.877 284.11 817.294 284.325C814.315 284.504 811.353 284.922 808.374 285.138C805.694 285.335 803.149 285.39 800.539 286.159C795.719 287.581 791.485 290.577 788.224 294.54C784.559 299.001 781.222 303.782 778.032 308.631C774.953 313.313 772.191 318.236 769.412 323.134C768.327 325.053 767.283 327.108 766.808 329.244C766.573 330.296 767.4 332.013 768.268 332.782C768.813 333.268 770.52 332.868 771.364 332.308C773.218 331.077 774.103 329.084 774.871 326.875C778.8 315.614 784.618 305.579 793.051 297.346C796.956 293.531 801.36 289.962 806.609 288.522C809.271 287.79 812.016 287.888 814.754 287.839C817.622 287.79 820.701 287.98 823.351 289.242C826.735 290.854 830.019 293.315 833.045 295.555C834.804 296.859 836.183 298.625 837.784 300.121C839.502 301.727 841.138 303.406 842.745 305.129C846.222 308.864 849.553 312.753 853.001 316.513C855.793 319.546 859.968 321.441 863.927 322.161C867.533 322.82 869.421 320.266 869.967 315.073C870.231 312.624 868.929 310.68 865.733 310.667Z" fill="#B3ADE2"/>
<path d="M836.845 299.167C837.209 299.518 837.572 299.862 837.936 300.213C837.572 299.868 837.209 299.518 836.845 299.167Z" fill="#28272F"/>
</svg>
